<svg xmlns="http://www.w3.org/2000/svg" viewBox="0 0 24 24" fill="currentColor">
  <path d="M12 2C6.48 2 2 5.813 2 10.5c0 4.21 3.738 7.74 8.79 8.408.342.074.808.226.926.52.106.264.07.678.034.944l-.15.896c-.046.264-.21 1.032.904.563 1.114-.47 6.012-3.54 8.2-6.063C22.564 13.68 22 12.16 22 10.5 22 5.813 17.52 2 12 2zm-3.33 11.05h-2.1a.465.465 0 0 1-.464-.465V8.87a.465.465 0 0 1 .93 0v3.25h1.634a.465.465 0 0 1 0 .93zm1.436-.465a.465.465 0 0 1-.93 0V8.87a.465.465 0 0 1 .93 0zm3.68 0a.465.465 0 0 1-.332.446.457.457 0 0 1-.534-.198l-1.95-2.655v2.407a.465.465 0 0 1-.93 0V8.87a.465.465 0 0 1 .332-.447.46.46 0 0 1 .534.198l1.95 2.655V8.87a.465.465 0 0 1 .93 0zm2.91-2.715a.465.465 0 0 1 0 .93H15.06v.823h1.634a.465.465 0 0 1 0 .93H15.06v.823h1.634a.465.465 0 0 1 0 .93h-2.1a.465.465 0 0 1-.464-.465V8.87a.465.465 0 0 1 .465-.465h2.1a.465.465 0 0 1 0 .93H15.06v.535z"/>
</svg>
